# xmcd CD database file
#
# Track frame offsets:
#	150
#	8844
#	19420
#	29657
#	44233
#	59298
#	71515
#	87834
#	100812
#	109537
#	115624
#
# Disc length: 1670 seconds
#
# Revision: 0
# Processed by: cddbd v1.5.2PL0 Copyright (c) Steve Scherf et al.
# Submitted via: CDex 1.51
#
DISCID=8e06840b
DTITLE=BEM - Sede Perfeitos
DYEAR=2008
DGENRE=New Age
TTITLE0=Vem
TTITLE1=O livro da vida
TTITLE2=O ciclo
TTITLE3=Sede perfeitos
TTITLE4=Se amor
TTITLE5=Meu irmão
TTITLE6=Recomeçar
TTITLE7=Sobre ombros de gigantes
TTITLE8=Quando em prece
TTITLE9=Sementinha
TTITLE10=Quero estar onde estiver você
EXTD=YEAR: 2008
EXTT0=
EXTT1=
EXTT2=
EXTT3=
EXTT4=
EXTT5=
EXTT6=
EXTT7=
EXTT8=
EXTT9=
EXTT10=
PLAYORDER=
